<?xml version="1.0" encoding="iso-8859-1"?>
<!-- Generator: Adobe Illustrator 19.0.0, SVG Export Plug-In . SVG Version: 6.00 Build 0)  -->
<svg version="1.1" id="Capa_1" xmlns="http://www.w3.org/2000/svg" xmlns:xlink="http://www.w3.org/1999/xlink" x="0px" y="0px"
	 viewBox="0 0 512.001 512.001" style="enable-background:new 0 0 512.001 512.001;" xml:space="preserve">
<path style="fill:#EBD5FF;" d="M93.091,162.909h372.364c25.706,0,46.546,20.84,46.546,46.546v186.182
	c0,25.706-20.84,46.546-46.546,46.546H93.091c-25.706,0-46.546-20.84-46.546-46.546V209.455
	C46.546,183.748,67.385,162.909,93.091,162.909z"/>
<g>
	<path style="fill:#DCB5FF;" d="M442.182,186.182L442.182,186.182c25.706,0,46.546,20.84,46.546,46.546v46.545
		c0,25.706-20.84,46.546-46.546,46.546l0,0c-25.706,0-46.546-20.84-46.546-46.546v-46.546
		C395.637,207.021,416.476,186.182,442.182,186.182z"/>
	<path style="fill:#DCB5FF;" d="M232.727,325.819h93.091c12.853,0,23.272,10.419,23.272,23.272l0,0
		c0,12.853-10.419,23.272-23.272,23.272h-93.091c-12.853,0-23.272-10.419-23.272-23.272l0,0
		C209.455,336.238,219.874,325.819,232.727,325.819z"/>
</g>
<path style="fill:#00C864;" d="M442.182,186.182H116.364c0,25.706-20.84,46.545-46.546,46.546v139.636
	c25.706,0,46.545,20.839,46.546,46.545v0.001h325.819c0-25.706,20.839-46.545,46.545-46.546h0.001V232.728
	C463.022,232.727,442.183,211.888,442.182,186.182L442.182,186.182z M279.273,372.363c-38.559,0-69.818-31.259-69.818-69.818
	s31.259-69.818,69.818-69.818s69.818,31.259,69.818,69.818C349.092,341.104,317.833,372.363,279.273,372.363L279.273,372.363z"/>
<path style="fill:#00A84F;" d="M442.182,186.182H116.364c0,25.706-20.84,46.545-46.546,46.546v93.091
	c0,25.706,20.84,46.545,46.546,46.546h162.909c-38.559,0-69.818-31.259-69.818-69.818s31.259-69.818,69.818-69.818
	s69.818,31.259,69.818,69.818s-31.259,69.818-69.818,69.818l0,0h162.909c25.706,0,46.545-20.84,46.546-46.546v-93.091
	C463.022,232.727,442.183,211.888,442.182,186.182z"/>
<path style="fill:#F6EDFF;" d="M46.546,69.818H418.91c25.706,0,46.546,20.84,46.546,46.546v186.182
	c0,25.705-20.84,46.545-46.546,46.545H46.546C20.84,349.091,0,328.251,0,302.545V116.364C0,90.658,20.84,69.818,46.546,69.818z"/>
<path style="fill:#F0E1FF;" d="M418.91,69.818H279.273c-12.853,0-23.272,10.418-23.272,23.271v0.001
	c0,12.853-10.419,23.272-23.272,23.272H162.91c-12.853-0.008-23.279,10.405-23.287,23.258s10.405,23.279,23.258,23.287
	c0.01,0,0.019,0,0.028,0h69.818c12.853,0.005,23.269,10.428,23.264,23.282c-0.005,12.847-10.417,23.259-23.264,23.264
	c-12.854,0.001-23.273,10.42-23.273,23.273c0,12.853,10.419,23.272,23.272,23.272h69.818c12.853,0,23.272,10.419,23.272,23.272
	s-10.419,23.272-23.272,23.272H186.183c-12.853,0.005-23.269,10.428-23.264,23.282c0.005,12.847,10.417,23.259,23.264,23.264H418.91
	c25.706,0,46.545-20.84,46.546-46.546v-186.18C465.456,90.658,444.617,69.818,418.91,69.818
	C418.911,69.818,418.91,69.818,418.91,69.818L418.91,69.818z"/>
<path style="fill:#19E77C;" d="M395.637,93.091H69.819c0,25.706-20.84,46.546-46.546,46.546v139.636
	c25.706,0,46.546,20.839,46.546,46.545v0.001h325.819c0-25.706,20.839-46.545,46.545-46.546h0.001V139.636
	C416.476,139.636,395.637,118.797,395.637,93.091L395.637,93.091z M232.727,279.273c-38.559,0-69.818-31.259-69.818-69.818
	s31.259-69.818,69.818-69.818s69.818,31.259,69.818,69.818S271.288,279.273,232.727,279.273
	C232.729,279.273,232.727,279.273,232.727,279.273L232.727,279.273z"/>
<path style="fill:#00C864;" d="M395.637,325.819c0-25.706,20.839-46.545,46.545-46.546h0.001V139.636
	c-25.706,0-46.545-20.84-46.546-46.546H256.001c0,12.853-10.419,23.272-23.272,23.272H162.91
	c-12.853-0.008-23.279,10.405-23.287,23.258s10.405,23.279,23.258,23.287c0.01,0,0.019,0,0.028,0h18.119
	c25.552-28.691,69.526-31.236,98.217-5.684s31.236,69.526,5.684,98.217c-0.167,0.187-0.334,0.373-0.502,0.557h18.119
	c12.853,0.008,23.267,10.433,23.258,23.287c-0.008,12.842-10.416,23.251-23.258,23.258H186.183
	c-12.853,0-23.272,10.418-23.272,23.271v0.001h232.727V325.819z"/>
<path style="fill:#FF4957;" d="M9.641,455.815L455.815,9.64c12.853-12.853,33.693-12.853,46.546,0l0,0
	c12.853,12.853,12.853,33.693,0,46.546L56.186,502.361c-12.853,12.853-33.693,12.853-46.546,0l0,0
	C-3.213,489.508-3.213,468.668,9.641,455.815z"/>
<g>
</g>
<g>
</g>
<g>
</g>
<g>
</g>
<g>
</g>
<g>
</g>
<g>
</g>
<g>
</g>
<g>
</g>
<g>
</g>
<g>
</g>
<g>
</g>
<g>
</g>
<g>
</g>
<g>
</g>
</svg>
