<svg height="512pt" viewBox="1 1 511.99998 511.99998" width="512pt" xmlns="http://www.w3.org/2000/svg"><path d="m512 256c0 141.386719-114.613281 256-256 256s-256-114.613281-256-256 114.613281-256 256-256 256 114.613281 256 256zm0 0" fill="#18282d"/><path d="m411.984375 411.980469-155.980469-155.980469-155.992187 155.992188c-86.152344-86.152344-86.152344-225.835938 0-311.984376 86.152343-86.152343 225.832031-86.152343 311.972656 0 86.152344 86.148438 86.152344 225.820313 0 311.972657zm0 0" fill="#ff2751"/><path d="m411.984375 100.015625c43.082031 43.082031 64.617187 99.539063 64.617187 155.984375h-220.597656zm0 0" fill="#28b24b"/><path d="m256.003906 256h220.597656c0 56.464844-21.546874 112.898438-64.617187 155.980469zm0 0" fill="#39d365"/><path d="m411.984375 100.007812v.007813l-155.980469 155.984375v-220.609375c56.453125 0 112.910156 21.542969 155.980469 64.617187zm0 0" fill="#f4ca19"/><path d="m256.003906 35.390625v220.609375l-155.992187-155.992188c43.078125-43.074218 99.535156-64.617187 155.992187-64.617187zm0 0" fill="#e29b0e"/><path d="m256.003906 256-155.992187 155.992188c-43.082031-43.070313-64.617188-99.539063-64.617188-155.992188zm0 0" fill="#d10f46"/><path d="m360.800781 256c0 57.878906-46.921875 104.800781-104.800781 104.800781s-104.800781-46.921875-104.800781-104.800781 46.921875-104.800781 104.800781-104.800781 104.800781 46.921875 104.800781 104.800781zm0 0" fill="#18282d"/><path d="m425.253906 163.195312-181.542968 77.492188 18.589843 33.902344zm0 0" fill="#fff"/><path d="m295.988281 255.996094c0 22.085937-17.902343 39.988281-39.988281 39.988281-22.082031 0-39.984375-17.902344-39.984375-39.988281 0-22.082032 17.902344-39.988282 39.984375-39.988282 22.085938 0 39.988281 17.90625 39.988281 39.988282zm0 0" fill="#e6e6e6"/><g fill="#31474c"><path d="m337.359375 464.214844h-30.265625c-5.476562 0-9.914062-4.4375-9.914062-9.910156v-65.859376c0-5.472656 4.4375-9.910156 9.914062-9.910156h30.265625c5.472656 0 9.910156 4.4375 9.910156 9.910156v65.859376c0 5.472656-4.4375 9.910156-9.910156 9.910156zm0 0"/><path d="m271.132812 464.214844h-30.265624c-5.476563 0-9.914063-4.4375-9.914063-9.910156v-65.859376c0-5.472656 4.4375-9.910156 9.914063-9.910156h30.265624c5.476563 0 9.914063 4.4375 9.914063 9.910156v65.859376c0 5.472656-4.4375 9.910156-9.914063 9.910156zm0 0"/><path d="m204.90625 464.214844h-30.265625c-5.472656 0-9.910156-4.4375-9.910156-9.910156v-65.859376c0-5.472656 4.4375-9.910156 9.910156-9.910156h30.265625c5.476562 0 9.914062 4.4375 9.914062 9.910156v65.859376c0 5.472656-4.4375 9.910156-9.914062 9.910156zm0 0"/></g></svg>